# Blender 4.0.2
# www.blender.org
mtllib house.mtl
o Cube
v -2.094428 0.579457 0.409863
v 2.000000 3.500000 -3.000000
v 2.000000 3.500000 3.000000
v -2.094428 2.335131 0.409863
v -2.000000 3.500000 -3.000000
v -1.737466 1.661666 -1.311289
v -1.737466 2.698040 -1.311289
v -2.094428 0.579457 -0.409863
v -2.000000 3.500000 3.000000
v -1.737466 1.661666 -2.347663
v -1.737466 2.698040 -2.347663
v -2.094428 2.335131 -0.409863
v 0.000000 4.309935 3.000000
v -1.310007 0.457294 0.532026
v -1.310007 2.457294 0.532026
v 0.000000 4.309935 -3.000000
v -1.737466 1.657540 1.307162
v -1.310007 0.457294 -0.532026
v 2.000000 0.415487 -3.000000
v -1.737466 2.702167 1.307162
v -2.000000 0.415487 3.000000
v -1.737466 1.657540 2.351789
v -1.310007 2.457294 -0.532026
v -1.737466 2.702167 2.351789
v 2.000000 0.415487 3.000000
v -2.094428 2.453710 0.532026
v -2.000000 0.415487 -3.000000
v -2.094428 2.453710 -0.532026
v -2.384400 -0.039928 -3.576600
v -1.310007 2.453710 -0.532026
v -2.384400 -0.039928 3.576600
v -1.310007 2.453710 0.532026
v 2.384400 -0.039928 -3.576600
v 2.384400 0.455415 -3.576600
v 2.384400 0.455415 3.576600
v 2.384400 -0.039928 3.576600
v -2.384400 0.455415 -3.576600
v -2.384400 0.455415 3.576600
v -2.000000 2.216537 0.532026
v -2.000000 2.453710 0.532026
v -2.000000 2.453710 -0.532026
v -2.000000 2.457294 -0.532026
v -2.000000 2.231251 -0.532026
v -2.000000 2.453710 0.403937
v -2.000000 2.457294 0.532026
v -2.000000 0.457294 0.532026
v -2.000000 0.457294 -0.532026
v -2.094428 0.457294 0.532026
v -2.094428 0.457294 -0.532026
v -2.094428 2.457294 -0.532026
v -2.094428 2.457294 0.532026
v -2.000698 0.579457 0.409863
v -2.000698 0.579457 -0.409863
v -2.000698 2.335131 -0.409863
v -2.000698 2.335131 0.409863
v -2.000000 1.554632 2.454697
v -2.000000 2.805075 2.454697
v -2.000000 1.554632 -2.454697
v -2.000000 2.805075 -2.454697
v -2.000000 1.554632 -1.204254
v -2.000000 2.576833 -1.204254
v -2.000000 1.554632 1.204254
v -2.000000 2.566127 1.204254
v -2.000000 2.738699 1.204254
v -2.000000 2.738699 -1.204254
v -2.000000 2.805075 -1.204254
v -2.000000 2.805075 1.204254
v -1.737466 1.554632 -2.454697
v -1.737466 2.805075 -2.454697
v -1.737466 1.554632 -1.204254
v -1.737466 2.805075 -1.204254
v -1.737466 1.554632 1.204254
v -1.737466 1.554632 2.454697
v -1.737466 2.805075 2.454697
v -1.737466 2.805075 1.204254
vn -0.0000 -0.0000 1.0000
vn -1.0000 -0.0000 -0.0000
vn 1.0000 -0.0000 -0.0000
vn -0.0000 -0.0000 -1.0000
vn -0.0000 0.9976 0.0691
vn 0.1033 0.9946 -0.0000
vn -0.0000 0.9976 -0.0691
vn -0.1033 0.9946 -0.0000
vn -0.0000 1.0000 -0.0000
vn -0.0000 -1.0000 -0.0000
vt 0.404678 0.750000
vt 0.625000 0.750000
vt 0.625000 1.000000
vt 0.404678 1.000000
vt 0.550265 0.102832
vt 0.558295 0.074823
vt 0.570621 0.074823
vt 0.550521 0.102832
vt 0.550521 0.147168
vt 0.550265 0.108169
vt 0.575362 0.074823
vt 0.575362 0.022721
vt 0.486045 0.022721
vt 0.486045 0.074823
vt 0.533324 0.102832
vt 0.407664 0.102832
vt 0.404678 0.000000
vt 0.625000 0.000000
vt 0.625000 0.250000
vt 0.404678 0.250000
vt 0.407664 0.147168
vt 0.534375 0.147168
vt 0.550265 0.147168
vt 0.559059 0.175177
vt 0.486045 0.175177
vt 0.486045 0.227279
vt 0.575363 0.227279
vt 0.575362 0.175177
vt 0.570621 0.175177
vt 0.404678 0.500000
vt 0.625000 0.500000
vt 0.375000 0.250000
vt 0.375000 0.500000
vt 0.375000 0.750000
vt 0.375000 0.000000
vt 0.375000 1.000000
vt 0.609730 0.221298
vt 0.609730 0.028702
vt 0.375000 0.280095
vt 0.596745 0.280095
vt 0.625000 0.280095
vt 0.625000 0.969905
vt 0.594905 0.969905
vt 0.375000 0.969905
vt 0.155095 0.750000
vt 0.155095 0.500000
vt 0.125000 0.500000
vt 0.125000 0.750000
vt 0.844905 0.719905
vt 0.844905 0.500000
vt 0.844905 0.750000
vt 0.875000 0.750000
vt 0.875000 0.500000
vt 0.390270 0.221298
vt 0.390270 0.028702
vt 0.625000 0.447512
vt 0.375000 0.447512
vt 0.396399 0.521399
vt 0.396399 0.728601
vt 0.603601 0.728601
vt 0.603601 0.521399
vt 0.625000 0.802488
vt 0.375000 0.802488
vt 0.579368 0.802488
vt 0.611730 0.802488
vt 0.322512 0.500000
vt 0.322512 0.750000
vt 0.677488 0.500000
vt 0.677488 0.750000
vt 0.395574 0.520574
vt 0.604426 0.520574
vt 0.604426 0.729426
vt 0.395574 0.729426
vt 0.577227 0.802488
vt 0.322512 0.750000
vt 0.322512 0.500000
s 0
usemtl Material
f 25/1/1 3/2/1 9/3/1 21/4/1
f 40/5/2 63/6/2 64/7/2 45/8/2
f 42/9/2 44/10/2 45/8/2 64/7/2 67/11/2 57/12/2 56/13/2 62/14/2 63/6/2 40/5/2 39/15/2 46/16/2 21/17/2 9/18/2 5/19/2 27/20/2 47/21/2 43/22/2 41/23/2 61/24/2 60/25/2 58/26/2 59/27/2 66/28/2 65/29/2
f 41/23/2 42/9/2 65/29/2 61/24/2
f 45/8/2 44/10/2 40/5/2
f 41/23/2 44/10/2 42/9/2
f 27/20/2 21/17/2 46/16/2 47/21/2
f 44/10/2 41/23/2 43/22/2 47/21/2 46/16/2 39/15/2 40/5/2
f 19/30/3 2/31/3 3/2/3 25/1/3
f 27/20/4 5/19/4 2/31/4 19/30/4
f 2/31/4 5/19/4 16/31/4
f 9/3/1 3/2/1 13/3/1
f 27/20/5 19/30/5 34/30/5 37/20/5
f 21/17/6 27/20/6 37/20/6 38/17/6
f 29/32/4 37/20/4 34/30/4 33/33/4
f 33/33/3 34/30/3 35/1/3 36/34/3
f 31/35/2 38/17/2 37/20/2 29/32/2
f 36/34/1 35/1/1 38/4/1 31/36/1
f 25/1/7 21/4/7 38/4/7 35/1/7
f 19/30/8 25/1/8 35/1/8 34/30/8
f 12/37/9 4/38/9 55/38/9 54/37/9
f 50/19/1 49/32/1 47/39/1 43/40/1 42/41/1
f 47/39/1 18/33/1 23/31/1 42/41/1 43/40/1
f 18/33/2 14/34/2 15/2/2 23/31/2
f 51/3/4 45/42/4 39/43/4 46/44/4 48/36/4
f 45/42/4 15/2/4 14/34/4 46/44/4 39/43/4
f 46/45/9 14/34/9 18/33/9 47/46/9
f 49/47/9 48/48/9 46/45/9 47/46/9
f 15/2/3 32/2/3 30/31/3 23/31/3
f 44/49/10 41/50/10 30/31/10 32/2/10 40/51/10
f 40/51/10 26/52/10 28/53/10 41/50/10 44/49/10
f 50/19/2 28/19/2 26/18/2 51/18/2
f 51/3/1 26/3/1 40/42/1 45/42/1
f 40/42/1 32/2/1 15/2/1 45/42/1
f 42/41/4 23/31/4 30/31/4 41/41/4
f 28/19/4 50/19/4 42/41/4 41/41/4
f 8/54/3 1/55/3 48/35/3 49/32/3
f 12/37/3 8/54/3 49/32/3 50/19/3
f 4/38/3 12/37/3 50/19/3 51/18/3
f 1/55/3 4/38/3 51/18/3 48/35/3
f 52/55/3 53/54/3 54/37/3 55/38/3
f 1/55/10 8/54/10 53/54/10 52/55/10
f 4/38/1 1/55/1 52/55/1 55/38/1
f 8/54/4 12/37/4 54/37/4 53/54/4
f 68/33/1 69/31/1 59/56/1 58/57/1
f 10/58/2 6/59/2 7/60/2 11/61/2
f 66/62/4 71/2/4 70/34/4 60/63/4 61/64/4 65/65/4
f 70/34/9 68/33/9 58/66/9 60/67/9
f 59/68/10 69/31/10 71/2/10 66/69/10
f 57/56/4 74/31/4 73/33/4 56/57/4
f 22/70/2 24/71/2 20/72/2 17/73/2
f 62/63/1 72/34/1 75/2/1 67/62/1 64/65/1 63/74/1
f 73/33/9 72/34/9 62/75/9 56/76/9
f 67/69/10 75/2/10 74/31/10 57/68/10
f 10/58/2 11/61/2 69/31/2 68/33/2
f 7/60/2 6/59/2 70/34/2 71/2/2
f 6/59/2 10/58/2 68/33/2 70/34/2
f 11/61/2 7/60/2 71/2/2 69/31/2
f 22/70/2 17/73/2 72/34/2 73/33/2
f 24/71/2 22/70/2 73/33/2 74/31/2
f 20/72/2 24/71/2 74/31/2 75/2/2
f 17/73/2 20/72/2 75/2/2 72/34/2
o roof
v 1.995383 3.495960 -3.327679
v 1.995383 3.495960 3.327679
v -1.995383 3.495960 -3.327679
v -1.995383 3.495960 3.327679
v 0.000000 4.304025 3.327679
v 0.000000 4.304025 -3.327679
v 2.132390 3.754984 -3.327679
v 2.132390 3.754984 3.327679
v -2.132390 3.754984 3.327679
v -2.132390 3.754984 -3.327679
v -0.354255 4.475071 -3.327679
v 0.354255 4.475071 -3.327679
v 0.000000 4.304112 -3.327679
v -0.191721 4.519052 -3.327679
v 0.000000 4.534495 -3.327679
v 0.191721 4.519052 -3.327679
v 0.354255 4.475071 3.327679
v -0.354255 4.475071 3.327679
v 0.000000 4.304112 3.327679
v 0.191721 4.519052 3.327679
v 0.000000 4.534495 3.327679
v -0.191721 4.519052 3.327679
v 2.357551 3.349294 -3.327679
v 2.357551 3.349294 3.327679
v -2.357551 3.349294 3.327679
v -2.357551 3.349294 -3.327679
v 2.494559 3.608318 -3.327679
v 2.494559 3.608318 3.327679
v -2.494559 3.608318 3.327679
v -2.494559 3.608318 -3.327679
vn 0.3754 -0.9269 -0.0000
vn -0.3754 -0.9269 -0.0000
vn -0.0000 -0.0000 -1.0000
vn -0.3754 0.9269 -0.0000
vn 0.3754 0.9269 -0.0000
vn -0.0000 -0.0000 1.0000
vn -0.2612 0.9653 -0.0000
vn -0.0803 0.9968 -0.0000
vn 0.0803 0.9968 -0.0000
vn 0.2612 0.9653 -0.0000
vn 0.8840 -0.4676 -0.0000
vn -0.8840 -0.4676 -0.0000
vt 0.625000 0.250000
vt 0.625000 0.000000
vt 0.625000 0.750000
vt 0.625000 0.500000
s 0
usemtl Material
f 78/77/11 81/77/11 80/78/11 79/78/11
f 77/79/12 80/79/12 81/80/12 76/80/12
f 76/80/13 81/80/13 88/80/13 87/80/13 82/80/13
f 85/77/14 84/78/14 93/78/14 86/77/14
f 82/80/15 83/79/15 103/79/15 102/80/15
f 79/78/16 80/78/16 94/78/16 93/78/16 84/78/16
f 80/79/16 77/79/16 83/79/16 92/79/16 94/79/16
f 76/80/13 82/80/13 102/80/13 98/80/13
f 81/77/13 78/77/13 85/77/13 86/77/13 88/77/13
f 86/77/13 89/77/13 88/77/13
f 89/77/13 90/77/13 88/77/13
f 90/77/13 91/77/13 88/77/13
f 91/77/13 87/77/13 88/77/13
f 92/78/16 95/78/16 94/78/16
f 95/78/16 96/78/16 94/78/16
f 96/78/16 97/78/16 94/78/16
f 97/78/16 93/78/16 94/78/16
f 86/77/17 93/78/17 97/78/17 89/77/17
f 89/77/18 97/78/18 96/78/18 90/77/18
f 90/80/19 96/79/19 95/79/19 91/80/19
f 91/80/20 95/79/20 92/79/20 87/80/20
f 83/79/15 82/80/15 87/80/15 92/79/15
f 99/79/21 98/80/21 102/80/21 103/79/21
f 101/77/22 100/78/22 104/78/22 105/77/22
f 79/78/16 84/78/16 104/78/16 100/78/16
f 78/77/11 79/78/11 100/78/11 101/77/11
f 83/79/16 77/79/16 99/79/16 103/79/16
f 84/78/14 85/77/14 105/77/14 104/78/14
f 85/77/13 78/77/13 101/77/13 105/77/13
f 77/79/12 76/80/12 98/80/12 99/79/12
o Chimney
v -1.386015 4.800163 -1.948128
v -1.386015 2.200565 -1.948128
v -1.386015 4.800163 -2.533798
v -1.386015 2.200565 -2.533798
v -0.800345 4.800163 -1.948128
v -0.800345 2.200565 -1.948128
v -0.800345 4.800163 -2.533798
v -0.800345 2.200565 -2.533798
v -1.635203 4.800163 -2.782986
v -1.635203 4.800163 -1.698941
v -0.551158 4.800163 -2.782986
v -0.551158 4.800163 -1.698941
v -1.456300 5.249256 -2.604083
v -1.456300 5.249256 -1.877843
v -0.730060 5.249256 -2.604083
v -0.730060 5.249256 -1.877843
v -1.635203 5.249256 -2.782986
v -1.635203 5.249256 -1.698941
v -0.551158 5.249256 -2.782986
v -0.551158 5.249256 -1.698941
v -1.456300 5.035500 -2.604083
v -1.456300 5.035500 -1.877843
v -0.730060 5.035500 -2.604083
v -0.730060 5.035500 -1.877843
vn -1.0000 -0.0000 -0.0000
vn -0.0000 -0.0000 -1.0000
vn 1.0000 -0.0000 -0.0000
vn -0.0000 -0.0000 1.0000
vn -0.0000 -1.0000 -0.0000
vn -0.0000 1.0000 -0.0000
vt 0.375000 0.000000
vt 0.625000 0.000000
vt 0.625000 0.250000
vt 0.375000 0.250000
vt 0.625000 0.500000
vt 0.375000 0.500000
vt 0.625000 0.750000
vt 0.375000 0.750000
vt 0.625000 1.000000
vt 0.375000 1.000000
vt 0.166258 0.541258
vt 0.333742 0.541258
vt 0.333742 0.708742
vt 0.166258 0.708742
vt 0.125000 0.750000
vt 0.125000 0.500000
s 0
f 106/81/23 108/84/23 109/83/23 107/82/23
f 108/84/24 112/86/24 113/85/24 109/83/24
f 112/86/25 110/88/25 111/87/25 113/85/25
f 110/88/26 106/90/26 107/89/26 111/87/26
f 110/88/27 117/88/27 115/90/27 106/90/27
f 126/91/28 127/94/28 129/93/28 128/92/28
f 116/86/25 124/86/25 125/88/25 117/88/25
f 108/84/27 114/84/27 116/86/27 112/86/27
f 106/81/27 115/81/27 114/84/27 108/84/27
f 112/86/27 116/86/27 117/88/27 110/88/27
f 120/92/23 128/92/23 129/93/23 121/93/23
f 115/81/23 123/81/23 122/84/23 114/84/23
f 117/88/26 125/88/26 123/90/26 115/90/26
f 114/84/24 122/84/24 124/86/24 116/86/24
f 118/91/28 122/96/28 123/95/28 119/94/28
f 120/92/28 124/86/28 122/96/28 118/91/28
f 121/93/28 125/88/28 124/86/28 120/92/28
f 119/94/28 123/95/28 125/88/28 121/93/28
f 119/94/25 127/94/25 126/91/25 118/91/25
f 121/93/24 129/93/24 127/94/24 119/94/24
f 118/91/26 126/91/26 128/92/26 120/92/26
